<svg height="32" viewBox="0 0 32 32" width="32" xmlns="http://www.w3.org/2000/svg" xmlns:xlink="http://www.w3.org/1999/xlink"><linearGradient id="a" x1="68.678958%" x2="19.116925%" y1="31.153396%" y2="77.988913%"><stop offset="0" stop-color="#7a52ff"/><stop offset="1" stop-color="#2d7dff"/></linearGradient><path d="m20.6261016.5c1.1787287 0 2.0842528.27248695 2.6899331.87156692.6035482.59697111.8788877 1.48535394.8788877 2.63892856v6.27682072c1.2134037.0634478 1.6021677-.1583083 1.9690326-.3618636.290278-.15968408.5599048-.27001807.8516017-.35411576.2843636-.08198347.5941708-.12174121.9290509-.12174121.6663883 0 1.2689783.15677061 1.8063818.47520557.5381283.3188645.9640745.7520873 1.2782835 1.2992283.3152093.5488829.4707271 1.159355.4707271 1.8302679 0 .679326-.155242 1.2943628-.4707271 1.8437259-.314209.547141-.7401552.9803638-1.2782835 1.2992283-.5374035.318435-1.1399935.4752056-1.8063818.4752056-.3348801 0-.6446873-.0397578-.9290509-.1217412-.2897993-.0835506-.5579496-.1925595-.8041082-.3278471-.2566395-.1410479-.500875-.2986691-.7326793-.4729054l-.7241714-.5443252-.5597037 6.7779876c.0032377 1.1634404-.2717814 2.0587332-.8788594 2.6591957-.6056803.5990799-1.5112044.8715669-2.6899331.8715669h-16.61099459c-1.15870187 0-2.04933335-.2754809-2.64500098-.880368-.59776338-.6070152-.87010603-1.510331-.87010603-2.6839596v-5.7331245c0-.2814468.08549122-.5126762.2767787-.6840523.2013224-.1803666.43954058-.2694158.71377942-.2694158.66187998.1755022.82628637.2890146.98340835.4396364.21500948.2061144.45797597.4193571.72907797.6395272.29657506.2408576.65357863.4450487 1.07308281.6091184.41732626.1632178.92047484.2496755 1.51153536.2496755.76538354 0 1.46124633-.188345 2.08858768-.5614899.62496608-.3717321 1.12045977-.8732372 1.48630407-1.5046907.36577911-.6313408.55079016-1.33357.55079016-2.1078639 0-.783896-.18532397-1.4905212-.55079016-2.121322-.36646873-.6325312-.86289094-1.13224339-1.48890436-1.49949767-.62656032-.36757511-1.321543-.55322485-2.08598739-.55322485-.59106052 0-1.0942091.08645768-1.51153536.24967553-.41788991.16343831-.77354933.3642697-1.06899.59910098-.27263077.21670082-.51694971.42881081-.74110467.64386321-.1547054.1550463-.31617471.2708804-.48807103.3418171-.76164227.1035007-.99986045.0144515-1.20118285-.1659151-.19128748-.1713761-.2767787-.4026055-.2767787-.68405233v-5.77349853c0-1.17362868.27234265-2.07694442.87010603-2.6839597.59566763-.60488709 1.48629911-.88036794 2.64500098-.88036794z" fill="url(#a)" stroke="#59f" transform="translate(0 3)"/></svg>